<?xml version="1.0" encoding="UTF-8" standalone="no"?>
<!-- Created with Inkscape (http://www.inkscape.org/) -->

<svg
   xmlns:dc="http://purl.org/dc/elements/1.1/"
   xmlns:cc="http://creativecommons.org/ns#"
   xmlns:rdf="http://www.w3.org/1999/02/22-rdf-syntax-ns#"
   xmlns:svg="http://www.w3.org/2000/svg"
   xmlns="http://www.w3.org/2000/svg"
   xmlns:sodipodi="http://sodipodi.sourceforge.net/DTD/sodipodi-0.dtd"
   xmlns:inkscape="http://www.inkscape.org/namespaces/inkscape"
   width="210mm"
   height="297mm"
   viewBox="0 0 210 297"
   version="1.1"
   id="svg8"
   inkscape:version="0.92.1 r15371"
   sodipodi:docname="Title.svg">
  <defs
     id="defs2" />
  <sodipodi:namedview
     id="base"
     pagecolor="#ffffff"
     bordercolor="#666666"
     borderopacity="1.0"
     inkscape:pageopacity="0.0"
     inkscape:pageshadow="2"
     inkscape:zoom="1.4"
     inkscape:cx="157.01414"
     inkscape:cy="867.40213"
     inkscape:document-units="mm"
     inkscape:current-layer="layer1"
     showgrid="false"
     inkscape:snap-nodes="false"
     inkscape:window-width="1366"
     inkscape:window-height="705"
     inkscape:window-x="-8"
     inkscape:window-y="-8"
     inkscape:window-maximized="1" />
  <metadata
     id="metadata5">
    <rdf:RDF>
      <cc:Work
         rdf:about="">
        <dc:format>image/svg+xml</dc:format>
        <dc:type
           rdf:resource="http://purl.org/dc/dcmitype/StillImage" />
        <dc:title></dc:title>
      </cc:Work>
    </rdf:RDF>
  </metadata>
  <g
     inkscape:label="Layer 1"
     inkscape:groupmode="layer"
     id="layer1">
    <g
       transform="matrix(0.89343213,0,0,0.89343213,-123.99633,1.2348613)"
       id="g4536">
      <rect
         y="63.005524"
         x="81.717659"
         height="9.822155"
         width="9.822155"
         id="rect4526"
         style="opacity:1;fill:#a8796b;fill-opacity:1;stroke:none;stroke-width:1.05058742;stroke-linecap:butt;stroke-linejoin:miter;stroke-miterlimit:4;stroke-dasharray:none;stroke-opacity:1;paint-order:normal" />
      <rect
         style="opacity:1;fill:#814836;fill-opacity:1;stroke:none;stroke-width:1.02199996;stroke-linecap:butt;stroke-linejoin:miter;stroke-miterlimit:4;stroke-dasharray:none;stroke-opacity:1;paint-order:normal"
         id="rect4528"
         width="9.5548859"
         height="9.5548859"
         x="81.851295"
         y="63.13916" />
      <rect
         y="64.0746"
         x="82.786736"
         height="7.6839991"
         width="7.6839991"
         id="rect4530"
         style="opacity:1;fill:#a66957;fill-opacity:1;stroke:none;stroke-width:0.82188809;stroke-linecap:butt;stroke-linejoin:miter;stroke-miterlimit:4;stroke-dasharray:none;stroke-opacity:1;paint-order:normal" />
      <rect
         style="opacity:1;fill:#ba7c6a;fill-opacity:1;stroke:none;stroke-width:0.7894733;stroke-linecap:butt;stroke-linejoin:miter;stroke-miterlimit:4;stroke-dasharray:none;stroke-opacity:1;paint-order:normal"
         id="rect4532"
         width="7.3809466"
         height="7.3809466"
         x="82.938263"
         y="64.226128" />
      <path
         inkscape:connector-curvature="0"
         style="opacity:1;fill:#814836;fill-opacity:1;stroke:none;stroke-width:4.97958994;stroke-linecap:butt;stroke-linejoin:miter;stroke-miterlimit:4;stroke-dasharray:none;stroke-opacity:1;paint-order:normal"
         d="m 313.4668,242.74414 v 3.03516 l 10.91406,10.91406 -10.91406,10.91211 v 3.03515 h 3.03711 l 10.91211,-10.9121 10.9121,10.9121 h 3.03516 v -3.0371 l -10.91211,-10.91016 10.91211,-10.91211 v -3.03711 h -3.0332 l -10.91406,10.91406 -10.91407,-10.91406 z"
         transform="scale(0.26458333)"
         id="path4534" />
    </g>
    <g
       id="g4684"
       inkscape:export-xdpi="336.04416"
       inkscape:export-ydpi="336.04416">
      <path
         inkscape:connector-curvature="0"
         style="font-style:normal;font-weight:normal;font-size:10.58333302px;line-height:1.25;font-family:sans-serif;letter-spacing:0px;word-spacing:0px;fill:#ffffff;fill-opacity:1;stroke:#1f1f1f;stroke-width:3.4000001;stroke-miterlimit:4;stroke-dasharray:none;stroke-opacity:0.45856354"
         d="m 65.85386,51.7973 -0.03152,1.227315 1.21698,0.02119 -0.09508,8.435144 1.227315,0.02119 0.0956,-8.435144 1.059365,0.0098 0.204639,8.510074 1.227833,-0.02119 -0.127124,-5.027084 1.450041,-0.02119 0.09508,4.910297 1.227834,-0.02119 -0.1695,-9.175668 -1.227831,0.02119 0.05323,3.037541 -1.450041,0.02118 -0.0739,-2.995165 -1.097089,0.01912 0.0124,-0.484725 z m -23.700362,0.03152 -0.370001,10.01179 c 0.232831,0.0071 0.458237,0.01413 0.67696,0.02119 0.183444,0.0071 0.370705,0.01033 0.561205,0.01033 0.1905,0.0071 0.338585,0.01085 0.444418,0.01085 0.409223,0 0.758203,-0.07404 1.04748,-0.22221 0.28928,-0.148164 0.533152,-0.349062 0.730705,-0.603062 0.204613,-0.254 0.366848,-0.550686 0.486794,-0.889352 0.119944,-0.345723 0.211418,-0.708856 0.274918,-1.089856 0.0635,-0.381 0.105958,-0.772956 0.127124,-1.175123 0.02117,-0.40922 0.03152,-0.803939 0.03152,-1.184939 0,-0.388057 -0.0071,-0.776216 -0.02119,-1.16427 -0.0071,-0.395113 -0.03864,-0.772398 -0.09508,-1.132231 -0.04939,-0.359834 -0.127228,-0.698977 -0.233061,-1.016477 -0.09878,-0.3175 -0.243068,-0.592439 -0.433568,-0.825272 -0.1905,-0.232833 -0.430575,-0.416298 -0.719852,-0.550355 -0.289276,-0.134053 -0.642056,-0.201019 -1.058333,-0.201019 z m 9.177734,0 -0.370001,10.01179 c 0.232831,0.0071 0.458237,0.01413 0.67696,0.02119 0.183444,0.0071 0.370705,0.01033 0.561205,0.01033 0.1905,0.0071 0.338585,0.01085 0.444418,0.01085 0.409224,0 0.758204,-0.07404 1.047481,-0.22221 0.289279,-0.148164 0.533151,-0.349062 0.730705,-0.603062 0.204612,-0.254 0.366847,-0.550686 0.486793,-0.889352 0.119944,-0.345723 0.211418,-0.708856 0.274918,-1.089856 0.0635,-0.381 0.105958,-0.772956 0.127125,-1.175123 0.02117,-0.40922 0.03152,-0.803939 0.03152,-1.184939 0,-0.388057 -0.0071,-0.776216 -0.02119,-1.16427 -0.0071,-0.395113 -0.03864,-0.772398 -0.09508,-1.132231 -0.04939,-0.359834 -0.127228,-0.698977 -0.233061,-1.016477 -0.09878,-0.3175 -0.243067,-0.592439 -0.433567,-0.825272 -0.1905,-0.232833 -0.430575,-0.416298 -0.719852,-0.550355 -0.289277,-0.134053 -0.642057,-0.201019 -1.058334,-0.201019 z m -2.550747,0.01033 c -0.289279,-0.0071 -0.582168,0.06043 -0.878499,0.201539 -0.296333,0.134056 -0.567994,0.405714 -0.814937,0.814937 -0.23989,0.402167 -0.437507,0.969995 -0.592731,1.703772 -0.15522,0.726723 -0.232542,1.678913 -0.232542,2.85719 0,0.917223 0.06697,1.665235 0.20102,2.243791 0.134056,0.578554 0.306649,1.030401 0.518316,1.354955 0.218721,0.331613 0.458795,0.560813 0.719852,0.687813 0.26811,0.127 0.532693,0.193967 0.79375,0.201023 0.289277,0.0071 0.582165,-0.05991 0.878499,-0.201023 0.296333,-0.134056 0.564197,-0.405714 0.804084,-0.814937 0.246946,-0.402167 0.44836,-0.966714 0.603581,-1.693437 0.155223,-0.733777 0.232545,-1.689764 0.232545,-2.868041 0,-0.917223 -0.06697,-1.665234 -0.20102,-2.243791 -0.134056,-0.578556 -0.310446,-1.029882 -0.529167,-1.354439 -0.211666,-0.33161 -0.451225,-0.560813 -0.719338,-0.687813 -0.261054,-0.127 -0.522359,-0.194482 -0.783413,-0.201539 z m 11.227737,0.06356 0.127124,10.011791 h 3.28042 v -1.227315 h -2.074291 l -0.05271,-4.667417 1.64021,0.04238 0.02119,-1.227833 -1.672251,-0.04237 -0.02119,-1.651064 1.990061,0.05323 v -1.22783 z m 13.559895,0 0.127125,10.011791 h 3.28042 v -1.227315 h -2.074291 l -0.05271,-4.667417 1.64021,0.04238 0.02119,-1.227833 -1.672251,-0.04237 -0.02119,-1.651064 1.990061,0.05323 v -1.22783 z m -15.683796,0.03204 c -0.804333,0 -1.407541,0.440973 -1.809707,1.322917 -0.402167,0.881943 -0.603581,2.165683 -0.603581,3.85196 0,0.853723 0.04625,1.577229 0.137975,2.169893 0.09878,0.592667 0.243065,1.076097 0.433565,1.450041 0.1905,0.36689 0.430574,0.631473 0.719854,0.79375 0.296333,0.169333 0.642033,0.253733 1.037146,0.253733 0.33161,0 0.624498,-0.09855 0.878498,-0.296106 0.261057,-0.197557 0.476105,-0.455062 0.645438,-0.772562 0.17639,-0.324557 0.310322,-0.695283 0.402045,-1.111563 0.09172,-0.416276 0.137459,-0.843097 0.137459,-1.280541 0,-0.183443 -0.01743,-0.405569 -0.05271,-0.666625 -0.03528,-0.26811 -0.08102,-0.578432 -0.137459,-0.931209 -0.07761,-0.0071 -0.229492,-0.01793 -0.455272,-0.03204 -0.21872,-0.02117 -0.451204,-0.04239 -0.698148,-0.06356 -0.282223,-0.02822 -0.596339,-0.05273 -0.942062,-0.0739 l -0.06356,1.227833 c 0.119944,0.0071 0.24352,0.01413 0.37052,0.02119 0.105834,0.0071 0.222332,0.01413 0.349332,0.02119 0.134057,0.0071 0.264192,0.01413 0.391192,0.02119 0.01411,0.07761 0.01791,0.158729 0.01085,0.243396 v 0.232544 c 0,0.282224 -0.01795,0.557679 -0.05323,0.825789 -0.03528,0.268113 -0.08809,0.507669 -0.158647,0.719336 -0.07055,0.204613 -0.15875,0.370644 -0.264583,0.497644 -0.105833,0.127 -0.225613,0.190169 -0.359666,0.190169 -0.1905,0 -0.356534,-0.05989 -0.497645,-0.179832 -0.134056,-0.127 -0.246758,-0.32462 -0.338481,-0.59273 -0.08467,-0.275167 -0.151633,-0.631224 -0.20102,-1.068668 -0.04233,-0.437443 -0.06356,-0.970407 -0.06356,-1.598353 0,-1.291167 0.09527,-2.27166 0.285771,-2.941939 0.197556,-0.670277 0.49752,-1.005623 0.899686,-1.005623 0.134057,0 0.246759,0.04625 0.338482,0.137977 0.09172,0.09172 0.165764,0.221856 0.222207,0.39119 0.05644,0.169333 0.0951,0.374028 0.116271,0.613915 0.02822,0.232833 0.04238,0.494138 0.04238,0.783415 0,0.155223 -0.0033,0.317461 -0.01033,0.486791 -0.0071,0.16228 -0.01793,0.334873 -0.03204,0.518316 l 1.227834,0.105937 c 0.01411,-0.183444 0.02498,-0.370189 0.03204,-0.560689 0.0071,-0.1905 0.01034,-0.373965 0.01034,-0.550355 0,-0.472723 -0.03538,-0.903338 -0.105936,-1.291394 -0.0635,-0.388054 -0.172924,-0.719603 -0.328147,-0.99477 -0.155223,-0.275166 -0.356118,-0.486936 -0.603065,-0.635103 -0.246943,-0.155223 -0.550187,-0.232545 -0.910021,-0.232545 z m -14.566553,1.121894 h 0.285771 c 0.324557,0 0.574987,0.109424 0.751374,0.328147 0.183447,0.218721 0.317379,0.504018 0.402045,0.856795 0.08467,0.345723 0.1342,0.737677 0.14831,1.175123 0.02117,0.437444 0.03204,0.871339 0.03204,1.301729 0,0.437443 -0.01415,0.888772 -0.04238,1.354439 -0.02822,0.465667 -0.09191,0.889206 -0.190685,1.270206 -0.09878,0.381 -0.246861,0.6946 -0.444418,0.941544 -0.1905,0.246946 -0.455083,0.37052 -0.79375,0.37052 -0.05644,-0.01411 -0.116334,-0.02447 -0.179834,-0.03152 -0.05644,-0.0071 -0.113054,-0.01793 -0.169498,-0.03204 z m 9.177734,0 h 0.285771 c 0.324557,0 0.574988,0.109424 0.751375,0.328147 0.183446,0.218721 0.317378,0.504018 0.402045,0.856795 0.08467,0.345723 0.134199,0.737677 0.148309,1.175123 0.02117,0.437444 0.03204,0.871339 0.03204,1.301729 0,0.437443 -0.01415,0.888772 -0.04237,1.354439 -0.02822,0.465667 -0.09191,0.889206 -0.190686,1.270206 -0.09878,0.381 -0.246861,0.6946 -0.444418,0.941544 -0.1905,0.246946 -0.455083,0.37052 -0.79375,0.37052 -0.05644,-0.01411 -0.116334,-0.02447 -0.179834,-0.03152 -0.05644,-0.0071 -0.113054,-0.01793 -0.169498,-0.03204 z m -3.736205,0.01034 c 0.11289,0 0.229389,0.04574 0.349332,0.137459 0.127,0.09172 0.239705,0.257754 0.338482,0.497644 0.09878,0.232833 0.179895,0.561102 0.243395,0.984435 0.0635,0.423333 0.0956,0.969933 0.0956,1.64021 0,0.910167 -0.04246,1.651103 -0.127124,2.222603 -0.07761,0.564444 -0.179959,1.005417 -0.306959,1.322917 -0.119944,0.3175 -0.257673,0.532551 -0.412893,0.645438 -0.148167,0.105833 -0.289176,0.158647 -0.42323,0.158647 -0.119946,0 -0.239723,-0.04574 -0.35967,-0.137459 -0.119943,-0.09172 -0.229367,-0.253958 -0.328144,-0.486791 -0.09878,-0.23989 -0.179895,-0.571439 -0.243395,-0.994773 -0.0635,-0.423333 -0.09509,-0.970449 -0.09509,-1.640726 0,-0.910167 0.03866,-1.647306 0.116271,-2.211753 0.08467,-0.564443 0.187015,-1.005416 0.306959,-1.322916 0.127,-0.3175 0.26421,-0.532548 0.412377,-0.645438 0.148167,-0.11289 0.292973,-0.169497 0.434083,-0.169497 z m 6.41563,13.083955 -0.119375,1.837097 c -0.02358,-0.08463 -0.05056,-0.166177 -0.0832,-0.242879 -0.134056,-0.338667 -0.320799,-0.613606 -0.560689,-0.825273 -0.23989,-0.211667 -0.511548,-0.366826 -0.814938,-0.465606 -0.303387,-0.09878 -0.60715,-0.148309 -0.910537,-0.148309 l -1.153419,0.07389 -0.434081,9.916708 c 0.105833,0.01411 0.20818,0.02498 0.306956,0.03204 l 0.31781,0.02067 c 0.08467,0.01411 0.172863,0.02499 0.264583,0.03204 0.07761,0.0071 0.16201,0.01034 0.253733,0.01034 0.09878,0.0071 0.190767,0.01085 0.275434,0.01085 0.402167,0 0.762021,-0.05989 1.079521,-0.179834 0.324557,-0.112887 0.599496,-0.293074 0.825273,-0.540018 0.07044,-0.07258 0.134583,-0.15377 0.195336,-0.239262 l 9.242332,0.600998 0.532784,-8.186581 1.213361,3.464388 -1.640727,4.7625 1.33377,0.02119 0.973585,-2.857191 1.015958,2.878378 1.259353,-0.08423 -1.597835,-4.7625 1.57665,-4.614707 -1.322917,0.01085 -0.910024,2.645833 -0.910021,-2.709397 -1.397331,0.08475 0.0098,0.02739 z m -2.446364,1.38286 c 0.148167,0 0.296251,0.02451 0.444418,0.0739 0.148167,0.04939 0.278818,0.130505 0.391708,0.243395 0.119943,0.11289 0.211934,0.257694 0.275434,0.434081 0.0635,0.169333 0.08801,0.374028 0.0739,0.613918 -0.02822,0.465666 -0.144722,0.811368 -0.349332,1.037145 -0.20461,0.218723 -0.522007,0.331425 -0.952397,0.338482 0.02822,-0.599723 0.04945,-1.143043 0.06356,-1.629876 0.01411,-0.49389 0.02827,-0.860819 0.04238,-1.100709 z m 2.177129,2.755387 -0.06511,1.005107 c -0.08126,-0.146799 -0.175048,-0.278646 -0.281119,-0.395324 0.144224,-0.167299 0.258614,-0.371729 0.346233,-0.609783 z m -2.34611,1.075388 c 0.479777,0.02117 0.835834,0.173046 1.068668,0.455269 0.239889,0.282223 0.359669,0.684533 0.359669,1.206646 0,0.762 -0.130135,1.312394 -0.391192,1.65106 -0.254,0.331611 -0.613854,0.497129 -1.079521,0.497129 -0.02117,0 -0.04239,0.0038 -0.06356,0.01085 h -0.06356 c 0.02822,-0.747887 0.05653,-1.425138 0.08475,-2.031918 0.03528,-0.606777 0.06358,-1.203425 0.08475,-1.789036 z"
         id="path4667" />
      <path
         id="path4669"
         transform="scale(0.26458333)"
         d="M 248.89648 192.48633 L 248.77734 197.125 L 253.37695 197.20508 L 253.01758 229.08594 L 257.65625 229.16602 L 258.01758 197.28516 L 262.02148 197.32227 L 262.79492 229.48633 L 267.43555 229.40625 L 266.95508 210.40625 L 272.43555 210.32617 L 272.79492 228.88477 L 277.43555 228.80469 L 276.79492 194.125 L 272.1543 194.20508 L 272.35547 205.68555 L 266.875 205.76562 L 266.5957 194.44531 L 262.44922 194.51758 L 262.49609 192.68555 L 248.89648 192.48633 z M 159.32031 192.60547 L 157.92188 230.44531 C 158.80187 230.47198 159.6538 230.49872 160.48047 230.52539 C 161.1738 230.55206 161.88156 230.56445 162.60156 230.56445 C 163.32156 230.59112 163.88125 230.60547 164.28125 230.60547 C 165.82792 230.60547 167.1469 230.32562 168.24023 229.76562 C 169.33357 229.20563 170.25529 228.44633 171.00195 227.48633 C 171.77529 226.52633 172.38846 225.405 172.8418 224.125 C 173.29513 222.81833 173.64086 221.44586 173.88086 220.00586 C 174.12086 218.56586 174.28133 217.08445 174.36133 215.56445 C 174.44133 214.01779 174.48047 212.52594 174.48047 211.08594 C 174.48047 209.61927 174.45372 208.15221 174.40039 206.68555 C 174.37372 205.19221 174.25435 203.76625 174.04102 202.40625 C 173.85435 201.04625 173.56016 199.76445 173.16016 198.56445 C 172.78682 197.36445 172.24148 196.32531 171.52148 195.44531 C 170.80148 194.56531 169.89411 193.8719 168.80078 193.36523 C 167.70745 192.85857 166.37411 192.60547 164.80078 192.60547 L 159.32031 192.60547 z M 194.00781 192.60547 L 192.60938 230.44531 C 193.48937 230.47198 194.3413 230.49872 195.16797 230.52539 C 195.8613 230.55206 196.56906 230.56445 197.28906 230.56445 C 198.00906 230.59112 198.56875 230.60547 198.96875 230.60547 C 200.51542 230.60547 201.8344 230.32562 202.92773 229.76562 C 204.02107 229.20563 204.94279 228.44633 205.68945 227.48633 C 206.46279 226.52633 207.07596 225.405 207.5293 224.125 C 207.98263 222.81833 208.32836 221.44586 208.56836 220.00586 C 208.80836 218.56586 208.96883 217.08445 209.04883 215.56445 C 209.12883 214.01779 209.16797 212.52594 209.16797 211.08594 C 209.16797 209.61927 209.14122 208.15221 209.08789 206.68555 C 209.06122 205.19221 208.94185 203.76625 208.72852 202.40625 C 208.54185 201.04625 208.24766 199.76445 207.84766 198.56445 C 207.47432 197.36445 206.92898 196.32531 206.20898 195.44531 C 205.48898 194.56531 204.58161 193.8719 203.48828 193.36523 C 202.39495 192.85857 201.06161 192.60547 199.48828 192.60547 L 194.00781 192.60547 z M 184.36719 192.64453 C 183.27385 192.61786 182.16687 192.87292 181.04688 193.40625 C 179.92688 193.91292 178.90013 194.93966 177.9668 196.48633 C 177.06013 198.00633 176.31323 200.15245 175.72656 202.92578 C 175.1399 205.67245 174.84766 209.27128 174.84766 213.72461 C 174.84766 217.19128 175.10076 220.01841 175.60742 222.20508 C 176.11409 224.39174 176.76641 226.09951 177.56641 227.32617 C 178.39307 228.57951 179.30044 229.44578 180.28711 229.92578 C 181.30044 230.40578 182.30044 230.65888 183.28711 230.68555 C 184.38044 230.71221 185.48742 230.45911 186.60742 229.92578 C 187.72742 229.41911 188.73982 228.39237 189.64648 226.8457 C 190.57982 225.3257 191.34107 223.19198 191.92773 220.44531 C 192.5144 217.67198 192.80664 214.0588 192.80664 209.60547 C 192.80664 206.1388 192.55354 203.31167 192.04688 201.125 C 191.54021 198.93833 190.87354 197.23253 190.04688 196.00586 C 189.24688 194.75253 188.34146 193.88625 187.32812 193.40625 C 186.34146 192.92625 185.35385 192.6712 184.36719 192.64453 z M 226.80273 192.88477 L 227.2832 230.72461 L 239.68164 230.72461 L 239.68164 226.08594 L 231.8418 226.08594 L 231.64258 208.44531 L 237.8418 208.60547 L 237.92188 203.96484 L 231.60156 203.80469 L 231.52148 197.56445 L 239.04297 197.76562 L 239.04297 193.125 L 226.80273 192.88477 z M 278.05273 192.88477 L 278.5332 230.72461 L 290.93164 230.72461 L 290.93164 226.08594 L 283.0918 226.08594 L 282.89258 208.44531 L 289.0918 208.60547 L 289.17188 203.96484 L 282.85156 203.80469 L 282.77148 197.56445 L 290.29297 197.76562 L 290.29297 193.125 L 278.05273 192.88477 z M 218.77539 193.00586 C 215.73539 193.00586 213.45555 194.67253 211.93555 198.00586 C 210.41555 201.33919 209.6543 206.19112 209.6543 212.56445 C 209.6543 215.79112 209.82911 218.52563 210.17578 220.76562 C 210.54911 223.00562 211.09445 224.83276 211.81445 226.24609 C 212.53445 227.63276 213.44182 228.63276 214.53516 229.24609 C 215.65516 229.88609 216.96174 230.20508 218.45508 230.20508 C 219.70841 230.20508 220.81539 229.8326 221.77539 229.08594 C 222.76206 228.33927 223.57484 227.36602 224.21484 226.16602 C 224.88151 224.93935 225.38771 223.53818 225.73438 221.96484 C 226.08104 220.39151 226.25391 218.77833 226.25391 217.125 C 226.25391 216.43167 226.18802 215.59214 226.05469 214.60547 C 225.92135 213.59214 225.74849 212.41927 225.53516 211.08594 C 225.24182 211.05927 224.66779 211.01818 223.81445 210.96484 C 222.98779 210.88484 222.10911 210.80461 221.17578 210.72461 C 220.10911 210.61794 218.9219 210.52531 217.61523 210.44531 L 217.375 215.08594 C 217.82833 215.1126 218.29539 215.13935 218.77539 215.16602 C 219.17539 215.19268 219.6157 215.21943 220.0957 215.24609 C 220.60237 215.27276 221.09422 215.29951 221.57422 215.32617 C 221.62755 215.61951 221.6419 215.92609 221.61523 216.24609 L 221.61523 217.125 C 221.61523 218.19167 221.5474 219.23276 221.41406 220.24609 C 221.28073 221.25943 221.08112 222.16484 220.81445 222.96484 C 220.54779 223.73818 220.21445 224.3657 219.81445 224.8457 C 219.41445 225.3257 218.96174 225.56445 218.45508 225.56445 C 217.73508 225.56445 217.10755 225.3381 216.57422 224.88477 C 216.06755 224.40477 215.64159 223.65786 215.29492 222.64453 C 214.97492 221.60453 214.72182 220.2588 214.53516 218.60547 C 214.37516 216.95214 214.29492 214.93779 214.29492 212.56445 C 214.29492 207.68445 214.655 203.97865 215.375 201.44531 C 216.12167 198.91198 217.25539 197.64453 218.77539 197.64453 C 219.28206 197.64453 219.70802 197.81935 220.05469 198.16602 C 220.40135 198.51268 220.6812 199.00453 220.89453 199.64453 C 221.10786 200.28453 221.25398 201.05818 221.33398 201.96484 C 221.44065 202.84484 221.49414 203.83245 221.49414 204.92578 C 221.49414 205.51245 221.48174 206.12563 221.45508 206.76562 C 221.42841 207.37896 221.38732 208.03128 221.33398 208.72461 L 225.97461 209.125 C 226.02794 208.43167 226.06904 207.72586 226.0957 207.00586 C 226.12237 206.28586 226.13477 205.59245 226.13477 204.92578 C 226.13477 203.13911 226.00104 201.51159 225.73438 200.04492 C 225.49438 198.57826 225.08081 197.32516 224.49414 196.28516 C 223.90747 195.24516 223.14818 194.44477 222.21484 193.88477 C 221.28151 193.2981 220.13539 193.00586 218.77539 193.00586 z M 163.7207 197.24609 L 164.80078 197.24609 C 166.02745 197.24609 166.97396 197.65966 167.64062 198.48633 C 168.33396 199.31299 168.84016 200.39128 169.16016 201.72461 C 169.48016 203.03128 169.66737 204.51268 169.7207 206.16602 C 169.8007 207.81935 169.8418 209.45927 169.8418 211.08594 C 169.8418 212.73927 169.78831 214.44508 169.68164 216.20508 C 169.57497 217.96508 169.33427 219.56586 168.96094 221.00586 C 168.5876 222.44586 168.02792 223.63112 167.28125 224.56445 C 166.56125 225.49779 165.56125 225.96484 164.28125 225.96484 C 164.06792 225.91151 163.84156 225.87237 163.60156 225.8457 C 163.38823 225.81904 163.17427 225.77794 162.96094 225.72461 L 163.7207 197.24609 z M 198.4082 197.24609 L 199.48828 197.24609 C 200.71495 197.24609 201.66146 197.65966 202.32812 198.48633 C 203.02146 199.31299 203.52766 200.39128 203.84766 201.72461 C 204.16766 203.03128 204.35487 204.51268 204.4082 206.16602 C 204.4882 207.81935 204.5293 209.45927 204.5293 211.08594 C 204.5293 212.73927 204.47581 214.44508 204.36914 216.20508 C 204.26247 217.96508 204.02177 219.56586 203.64844 221.00586 C 203.2751 222.44586 202.71542 223.63112 201.96875 224.56445 C 201.24875 225.49779 200.24875 225.96484 198.96875 225.96484 C 198.75542 225.91151 198.52906 225.87237 198.28906 225.8457 C 198.07573 225.81904 197.86177 225.77794 197.64844 225.72461 L 198.4082 197.24609 z M 184.28711 197.28516 C 184.71378 197.28516 185.15409 197.45802 185.60742 197.80469 C 186.08742 198.15135 186.51339 198.77888 186.88672 199.68555 C 187.26005 200.56555 187.56664 201.80625 187.80664 203.40625 C 188.04664 205.00625 188.16797 207.07214 188.16797 209.60547 C 188.16797 213.04547 188.0075 215.84586 187.6875 218.00586 C 187.39417 220.13919 187.00734 221.80586 186.52734 223.00586 C 186.07401 224.20586 185.55346 225.01865 184.9668 225.44531 C 184.4068 225.84531 183.87385 226.04492 183.36719 226.04492 C 182.91385 226.04492 182.46115 225.87206 182.00781 225.52539 C 181.55448 225.17872 181.14091 224.56555 180.76758 223.68555 C 180.39424 222.77888 180.08766 221.52578 179.84766 219.92578 C 179.60766 218.32578 179.48828 216.25794 179.48828 213.72461 C 179.48828 210.28461 179.6344 207.49857 179.92773 205.36523 C 180.24773 203.2319 180.63456 201.56523 181.08789 200.36523 C 181.56789 199.16523 182.08648 198.35245 182.64648 197.92578 C 183.20648 197.49911 183.75378 197.28516 184.28711 197.28516 z M 208.53516 246.73633 L 208.08398 253.67969 C 207.99486 253.35983 207.89289 253.05162 207.76953 252.76172 C 207.26286 251.48172 206.55706 250.44258 205.65039 249.64258 C 204.74372 248.84258 203.71698 248.25615 202.57031 247.88281 C 201.42365 247.50948 200.27557 247.32227 199.12891 247.32227 L 194.76953 247.60156 L 193.12891 285.08203 C 193.52891 285.13536 193.91573 285.17646 194.28906 285.20312 L 195.49023 285.28125 C 195.81023 285.33458 196.14357 285.37568 196.49023 285.40234 C 196.78357 285.42901 197.10255 285.44141 197.44922 285.44141 C 197.82255 285.46807 198.17023 285.48242 198.49023 285.48242 C 200.01023 285.48242 201.37031 285.25607 202.57031 284.80273 C 203.79698 284.37607 204.83612 283.69505 205.68945 282.76172 C 205.95569 282.48742 206.19811 282.18054 206.42773 281.85742 L 241.35938 284.12891 L 243.37305 253.1875 L 247.95898 266.28125 L 241.75781 284.28125 L 246.79883 284.36133 L 250.47852 273.5625 L 254.31836 284.44141 L 259.07812 284.12305 L 253.03906 266.12305 L 258.99805 248.68164 L 253.99805 248.72266 L 250.55859 258.72266 L 247.11914 248.48242 L 241.83789 248.80273 L 241.875 248.90625 L 208.53516 246.73633 z M 199.28906 251.96289 C 199.84906 251.96289 200.40875 252.05552 200.96875 252.24219 C 201.52875 252.42885 202.02255 252.73544 202.44922 253.16211 C 202.90255 253.58878 203.25023 254.13607 203.49023 254.80273 C 203.73023 255.44273 203.82286 256.21638 203.76953 257.12305 C 203.66286 258.88305 203.22255 260.18964 202.44922 261.04297 C 201.67589 261.86964 200.47628 262.2956 198.84961 262.32227 C 198.95628 260.0556 199.03651 258.00211 199.08984 256.16211 C 199.14318 254.29544 199.19667 252.90862 199.25 252.00195 L 199.28906 251.96289 z M 207.51758 262.37695 L 207.27148 266.17578 C 206.96434 265.62095 206.60988 265.12263 206.20898 264.68164 C 206.75408 264.04933 207.18642 263.27668 207.51758 262.37695 z M 198.65039 266.44141 C 200.46372 266.52141 201.80945 267.09544 202.68945 268.16211 C 203.59612 269.22878 204.04883 270.74932 204.04883 272.72266 C 204.04883 275.60266 203.55698 277.68289 202.57031 278.96289 C 201.61031 280.21622 200.25023 280.8418 198.49023 280.8418 C 198.41023 280.8418 198.33 280.85615 198.25 280.88281 L 198.00977 280.88281 C 198.11643 278.05615 198.22341 275.49646 198.33008 273.20312 C 198.46341 270.90979 198.57039 268.65474 198.65039 266.44141 z "
         style="font-style:normal;font-weight:normal;font-size:10.58333302px;line-height:1.25;font-family:sans-serif;letter-spacing:0px;word-spacing:0px;fill:#ffffff;fill-opacity:1;stroke:#c2fe39;stroke-width:12.85039386;stroke-miterlimit:4;stroke-dasharray:none;stroke-opacity:1" />
      <path
         id="text4646"
         transform="scale(0.26458333)"
         d="M 248.89648 192.48633 L 248.77734 197.125 L 253.37695 197.20508 L 253.01758 229.08594 L 257.65625 229.16602 L 258.01758 197.28516 L 262.02148 197.32227 L 262.79492 229.48633 L 267.43555 229.40625 L 266.95508 210.40625 L 272.43555 210.32617 L 272.79492 228.88477 L 277.43555 228.80469 L 276.79492 194.125 L 272.1543 194.20508 L 272.35547 205.68555 L 266.875 205.76562 L 266.5957 194.44531 L 262.44922 194.51758 L 262.49609 192.68555 L 248.89648 192.48633 z M 159.32031 192.60547 L 157.92188 230.44531 C 158.80187 230.47198 159.6538 230.49872 160.48047 230.52539 C 161.1738 230.55206 161.88156 230.56445 162.60156 230.56445 C 163.32156 230.59112 163.88125 230.60547 164.28125 230.60547 C 165.82792 230.60547 167.1469 230.32562 168.24023 229.76562 C 169.33357 229.20563 170.25529 228.44633 171.00195 227.48633 C 171.77529 226.52633 172.38846 225.405 172.8418 224.125 C 173.29513 222.81833 173.64086 221.44586 173.88086 220.00586 C 174.12086 218.56586 174.28133 217.08445 174.36133 215.56445 C 174.44133 214.01779 174.48047 212.52594 174.48047 211.08594 C 174.48047 209.61927 174.45372 208.15221 174.40039 206.68555 C 174.37372 205.19221 174.25435 203.76625 174.04102 202.40625 C 173.85435 201.04625 173.56016 199.76445 173.16016 198.56445 C 172.78682 197.36445 172.24148 196.32531 171.52148 195.44531 C 170.80148 194.56531 169.89411 193.8719 168.80078 193.36523 C 167.70745 192.85857 166.37411 192.60547 164.80078 192.60547 L 159.32031 192.60547 z M 194.00781 192.60547 L 192.60938 230.44531 C 193.48937 230.47198 194.3413 230.49872 195.16797 230.52539 C 195.8613 230.55206 196.56906 230.56445 197.28906 230.56445 C 198.00906 230.59112 198.56875 230.60547 198.96875 230.60547 C 200.51542 230.60547 201.8344 230.32562 202.92773 229.76562 C 204.02107 229.20563 204.94279 228.44633 205.68945 227.48633 C 206.46279 226.52633 207.07596 225.405 207.5293 224.125 C 207.98263 222.81833 208.32836 221.44586 208.56836 220.00586 C 208.80836 218.56586 208.96883 217.08445 209.04883 215.56445 C 209.12883 214.01779 209.16797 212.52594 209.16797 211.08594 C 209.16797 209.61927 209.14122 208.15221 209.08789 206.68555 C 209.06122 205.19221 208.94185 203.76625 208.72852 202.40625 C 208.54185 201.04625 208.24766 199.76445 207.84766 198.56445 C 207.47432 197.36445 206.92898 196.32531 206.20898 195.44531 C 205.48898 194.56531 204.58161 193.8719 203.48828 193.36523 C 202.39495 192.85857 201.06161 192.60547 199.48828 192.60547 L 194.00781 192.60547 z M 184.36719 192.64453 C 183.27385 192.61786 182.16687 192.87292 181.04688 193.40625 C 179.92688 193.91292 178.90013 194.93966 177.9668 196.48633 C 177.06013 198.00633 176.31323 200.15245 175.72656 202.92578 C 175.1399 205.67245 174.84766 209.27128 174.84766 213.72461 C 174.84766 217.19128 175.10076 220.01841 175.60742 222.20508 C 176.11409 224.39174 176.76641 226.09951 177.56641 227.32617 C 178.39307 228.57951 179.30044 229.44578 180.28711 229.92578 C 181.30044 230.40578 182.30044 230.65888 183.28711 230.68555 C 184.38044 230.71221 185.48742 230.45911 186.60742 229.92578 C 187.72742 229.41911 188.73982 228.39237 189.64648 226.8457 C 190.57982 225.3257 191.34107 223.19198 191.92773 220.44531 C 192.5144 217.67198 192.80664 214.0588 192.80664 209.60547 C 192.80664 206.1388 192.55354 203.31167 192.04688 201.125 C 191.54021 198.93833 190.87354 197.23253 190.04688 196.00586 C 189.24688 194.75253 188.34146 193.88625 187.32812 193.40625 C 186.34146 192.92625 185.35385 192.6712 184.36719 192.64453 z M 226.80273 192.88477 L 227.2832 230.72461 L 239.68164 230.72461 L 239.68164 226.08594 L 231.8418 226.08594 L 231.64258 208.44531 L 237.8418 208.60547 L 237.92188 203.96484 L 231.60156 203.80469 L 231.52148 197.56445 L 239.04297 197.76562 L 239.04297 193.125 L 226.80273 192.88477 z M 278.05273 192.88477 L 278.5332 230.72461 L 290.93164 230.72461 L 290.93164 226.08594 L 283.0918 226.08594 L 282.89258 208.44531 L 289.0918 208.60547 L 289.17188 203.96484 L 282.85156 203.80469 L 282.77148 197.56445 L 290.29297 197.76562 L 290.29297 193.125 L 278.05273 192.88477 z M 218.77539 193.00586 C 215.73539 193.00586 213.45555 194.67253 211.93555 198.00586 C 210.41555 201.33919 209.6543 206.19112 209.6543 212.56445 C 209.6543 215.79112 209.82911 218.52563 210.17578 220.76562 C 210.54911 223.00562 211.09445 224.83276 211.81445 226.24609 C 212.53445 227.63276 213.44182 228.63276 214.53516 229.24609 C 215.65516 229.88609 216.96174 230.20508 218.45508 230.20508 C 219.70841 230.20508 220.81539 229.8326 221.77539 229.08594 C 222.76206 228.33927 223.57484 227.36602 224.21484 226.16602 C 224.88151 224.93935 225.38771 223.53818 225.73438 221.96484 C 226.08104 220.39151 226.25391 218.77833 226.25391 217.125 C 226.25391 216.43167 226.18802 215.59214 226.05469 214.60547 C 225.92135 213.59214 225.74849 212.41927 225.53516 211.08594 C 225.24182 211.05927 224.66779 211.01818 223.81445 210.96484 C 222.98779 210.88484 222.10911 210.80461 221.17578 210.72461 C 220.10911 210.61794 218.9219 210.52531 217.61523 210.44531 L 217.375 215.08594 C 217.82833 215.1126 218.29539 215.13935 218.77539 215.16602 C 219.17539 215.19268 219.6157 215.21943 220.0957 215.24609 C 220.60237 215.27276 221.09422 215.29951 221.57422 215.32617 C 221.62755 215.61951 221.6419 215.92609 221.61523 216.24609 L 221.61523 217.125 C 221.61523 218.19167 221.5474 219.23276 221.41406 220.24609 C 221.28073 221.25943 221.08112 222.16484 220.81445 222.96484 C 220.54779 223.73818 220.21445 224.3657 219.81445 224.8457 C 219.41445 225.3257 218.96174 225.56445 218.45508 225.56445 C 217.73508 225.56445 217.10755 225.3381 216.57422 224.88477 C 216.06755 224.40477 215.64159 223.65786 215.29492 222.64453 C 214.97492 221.60453 214.72182 220.2588 214.53516 218.60547 C 214.37516 216.95214 214.29492 214.93779 214.29492 212.56445 C 214.29492 207.68445 214.655 203.97865 215.375 201.44531 C 216.12167 198.91198 217.25539 197.64453 218.77539 197.64453 C 219.28206 197.64453 219.70802 197.81935 220.05469 198.16602 C 220.40135 198.51268 220.6812 199.00453 220.89453 199.64453 C 221.10786 200.28453 221.25398 201.05818 221.33398 201.96484 C 221.44065 202.84484 221.49414 203.83245 221.49414 204.92578 C 221.49414 205.51245 221.48174 206.12563 221.45508 206.76562 C 221.42841 207.37896 221.38732 208.03128 221.33398 208.72461 L 225.97461 209.125 C 226.02794 208.43167 226.06904 207.72586 226.0957 207.00586 C 226.12237 206.28586 226.13477 205.59245 226.13477 204.92578 C 226.13477 203.13911 226.00104 201.51159 225.73438 200.04492 C 225.49438 198.57826 225.08081 197.32516 224.49414 196.28516 C 223.90747 195.24516 223.14818 194.44477 222.21484 193.88477 C 221.28151 193.2981 220.13539 193.00586 218.77539 193.00586 z M 163.7207 197.24609 L 164.80078 197.24609 C 166.02745 197.24609 166.97396 197.65966 167.64062 198.48633 C 168.33396 199.31299 168.84016 200.39128 169.16016 201.72461 C 169.48016 203.03128 169.66737 204.51268 169.7207 206.16602 C 169.8007 207.81935 169.8418 209.45927 169.8418 211.08594 C 169.8418 212.73927 169.78831 214.44508 169.68164 216.20508 C 169.57497 217.96508 169.33427 219.56586 168.96094 221.00586 C 168.5876 222.44586 168.02792 223.63112 167.28125 224.56445 C 166.56125 225.49779 165.56125 225.96484 164.28125 225.96484 C 164.06792 225.91151 163.84156 225.87237 163.60156 225.8457 C 163.38823 225.81904 163.17427 225.77794 162.96094 225.72461 L 163.7207 197.24609 z M 198.4082 197.24609 L 199.48828 197.24609 C 200.71495 197.24609 201.66146 197.65966 202.32812 198.48633 C 203.02146 199.31299 203.52766 200.39128 203.84766 201.72461 C 204.16766 203.03128 204.35487 204.51268 204.4082 206.16602 C 204.4882 207.81935 204.5293 209.45927 204.5293 211.08594 C 204.5293 212.73927 204.47581 214.44508 204.36914 216.20508 C 204.26247 217.96508 204.02177 219.56586 203.64844 221.00586 C 203.2751 222.44586 202.71542 223.63112 201.96875 224.56445 C 201.24875 225.49779 200.24875 225.96484 198.96875 225.96484 C 198.75542 225.91151 198.52906 225.87237 198.28906 225.8457 C 198.07573 225.81904 197.86177 225.77794 197.64844 225.72461 L 198.4082 197.24609 z M 184.28711 197.28516 C 184.71378 197.28516 185.15409 197.45802 185.60742 197.80469 C 186.08742 198.15135 186.51339 198.77888 186.88672 199.68555 C 187.26005 200.56555 187.56664 201.80625 187.80664 203.40625 C 188.04664 205.00625 188.16797 207.07214 188.16797 209.60547 C 188.16797 213.04547 188.0075 215.84586 187.6875 218.00586 C 187.39417 220.13919 187.00734 221.80586 186.52734 223.00586 C 186.07401 224.20586 185.55346 225.01865 184.9668 225.44531 C 184.4068 225.84531 183.87385 226.04492 183.36719 226.04492 C 182.91385 226.04492 182.46115 225.87206 182.00781 225.52539 C 181.55448 225.17872 181.14091 224.56555 180.76758 223.68555 C 180.39424 222.77888 180.08766 221.52578 179.84766 219.92578 C 179.60766 218.32578 179.48828 216.25794 179.48828 213.72461 C 179.48828 210.28461 179.6344 207.49857 179.92773 205.36523 C 180.24773 203.2319 180.63456 201.56523 181.08789 200.36523 C 181.56789 199.16523 182.08648 198.35245 182.64648 197.92578 C 183.20648 197.49911 183.75378 197.28516 184.28711 197.28516 z M 208.53516 246.73633 L 208.08398 253.67969 C 207.99486 253.35983 207.89289 253.05162 207.76953 252.76172 C 207.26286 251.48172 206.55706 250.44258 205.65039 249.64258 C 204.74372 248.84258 203.71698 248.25615 202.57031 247.88281 C 201.42365 247.50948 200.27557 247.32227 199.12891 247.32227 L 194.76953 247.60156 L 193.12891 285.08203 C 193.52891 285.13536 193.91573 285.17646 194.28906 285.20312 L 195.49023 285.28125 C 195.81023 285.33458 196.14357 285.37568 196.49023 285.40234 C 196.78357 285.42901 197.10255 285.44141 197.44922 285.44141 C 197.82255 285.46807 198.17023 285.48242 198.49023 285.48242 C 200.01023 285.48242 201.37031 285.25607 202.57031 284.80273 C 203.79698 284.37607 204.83612 283.69505 205.68945 282.76172 C 205.95569 282.48742 206.19811 282.18054 206.42773 281.85742 L 241.35938 284.12891 L 243.37305 253.1875 L 247.95898 266.28125 L 241.75781 284.28125 L 246.79883 284.36133 L 250.47852 273.5625 L 254.31836 284.44141 L 259.07812 284.12305 L 253.03906 266.12305 L 258.99805 248.68164 L 253.99805 248.72266 L 250.55859 258.72266 L 247.11914 248.48242 L 241.83789 248.80273 L 241.875 248.90625 L 208.53516 246.73633 z M 199.28906 251.96289 C 199.84906 251.96289 200.40875 252.05552 200.96875 252.24219 C 201.52875 252.42885 202.02255 252.73544 202.44922 253.16211 C 202.90255 253.58878 203.25023 254.13607 203.49023 254.80273 C 203.73023 255.44273 203.82286 256.21638 203.76953 257.12305 C 203.66286 258.88305 203.22255 260.18964 202.44922 261.04297 C 201.67589 261.86964 200.47628 262.2956 198.84961 262.32227 C 198.95628 260.0556 199.03651 258.00211 199.08984 256.16211 C 199.14318 254.29544 199.19667 252.90862 199.25 252.00195 L 199.28906 251.96289 z M 207.51758 262.37695 L 207.27148 266.17578 C 206.96434 265.62095 206.60988 265.12263 206.20898 264.68164 C 206.75408 264.04933 207.18642 263.27668 207.51758 262.37695 z M 198.65039 266.44141 C 200.46372 266.52141 201.80945 267.09544 202.68945 268.16211 C 203.59612 269.22878 204.04883 270.74932 204.04883 272.72266 C 204.04883 275.60266 203.55698 277.68289 202.57031 278.96289 C 201.61031 280.21622 200.25023 280.8418 198.49023 280.8418 C 198.41023 280.8418 198.33 280.85615 198.25 280.88281 L 198.00977 280.88281 C 198.11643 278.05615 198.22341 275.49646 198.33008 273.20312 C 198.46341 270.90979 198.57039 268.65474 198.65039 266.44141 z "
         style="font-style:normal;font-weight:normal;font-size:10.58333302px;line-height:1.25;font-family:sans-serif;letter-spacing:0px;word-spacing:0px;fill:#ffffff;fill-opacity:1;stroke:#91b322;stroke-width:5.6692915;stroke-miterlimit:4;stroke-dasharray:none;stroke-opacity:0.80110496" />
      <g
         transform="matrix(0.9457442,0.06152982,-0.06152982,0.9457442,-18.232353,0.66722655)"
         id="g4524">
        <rect
           y="63.005524"
           x="81.717659"
           height="9.822155"
           width="9.822155"
           id="rect4495"
           style="opacity:1;fill:#a8796b;fill-opacity:1;stroke:none;stroke-width:1.05058742;stroke-linecap:butt;stroke-linejoin:miter;stroke-miterlimit:4;stroke-dasharray:none;stroke-opacity:1;paint-order:normal" />
        <rect
           style="opacity:1;fill:#814836;fill-opacity:1;stroke:none;stroke-width:1.02199996;stroke-linecap:butt;stroke-linejoin:miter;stroke-miterlimit:4;stroke-dasharray:none;stroke-opacity:1;paint-order:normal"
           id="rect4491"
           width="9.5548859"
           height="9.5548859"
           x="81.851295"
           y="63.13916" />
        <rect
           y="64.0746"
           x="82.786736"
           height="7.6839991"
           width="7.6839991"
           id="rect4493"
           style="opacity:1;fill:#a66957;fill-opacity:1;stroke:none;stroke-width:0.82188809;stroke-linecap:butt;stroke-linejoin:miter;stroke-miterlimit:4;stroke-dasharray:none;stroke-opacity:1;paint-order:normal" />
        <rect
           style="opacity:1;fill:#ba7c6a;fill-opacity:1;stroke:none;stroke-width:0.7894733;stroke-linecap:butt;stroke-linejoin:miter;stroke-miterlimit:4;stroke-dasharray:none;stroke-opacity:1;paint-order:normal"
           id="rect4497"
           width="7.3809466"
           height="7.3809466"
           x="82.938263"
           y="64.226128" />
        <path
           inkscape:connector-curvature="0"
           style="opacity:1;fill:#814836;fill-opacity:1;stroke:none;stroke-width:4.97958994;stroke-linecap:butt;stroke-linejoin:miter;stroke-miterlimit:4;stroke-dasharray:none;stroke-opacity:1;paint-order:normal"
           d="m 313.4668,242.74414 v 3.03516 l 10.91406,10.91406 -10.91406,10.91211 v 3.03515 h 3.03711 l 10.91211,-10.9121 10.9121,10.9121 h 3.03516 v -3.0371 l -10.91211,-10.91016 10.91211,-10.91211 v -3.03711 h -3.0332 l -10.91406,10.91406 -10.91407,-10.91406 z"
           transform="scale(0.26458333)"
           id="rect4499" />
      </g>
      <text
         id="text4487"
         y="60.00893"
         x="59.551636"
         style="font-style:normal;font-weight:normal;font-size:10.58333302px;line-height:1.25;font-family:sans-serif;letter-spacing:0px;word-spacing:0px;fill:#aa6955;fill-opacity:1;stroke:none;stroke-width:0.26458332;"
         xml:space="preserve"><tspan
           style="font-style:normal;font-variant:normal;font-weight:normal;font-stretch:normal;font-family:'Saker Sans Bold PERSONAL USE';-inkscape-font-specification:'Saker Sans Bold PERSONAL USE';text-align:center;text-anchor:middle;stroke-width:0.26458332;fill:#aa6955;fill-opacity:1;"
           y="60.00893"
           x="59.551636"
           id="tspan4485"
           sodipodi:role="line">DODGE THE</tspan><tspan
           id="tspan4489"
           style="font-style:normal;font-variant:normal;font-weight:normal;font-stretch:normal;font-family:'Saker Sans Bold PERSONAL USE';-inkscape-font-specification:'Saker Sans Bold PERSONAL USE';text-align:center;text-anchor:middle;stroke-width:0.26458332;fill:#aa6955;fill-opacity:1;"
           y="74.443748"
           x="59.551636"
           sodipodi:role="line">B    X</tspan></text>
      <path
         id="path4588"
         transform="scale(0.26458333)"
         d="M 175.76367 213.04688 C 175.46214 213.04807 175.16095 213.05465 174.85938 213.05664 C 174.85776 213.28581 174.84766 213.49073 174.84766 213.72461 C 174.84766 217.19128 175.10076 220.01841 175.60742 222.20508 C 176.11409 224.39174 176.76641 226.0995 177.56641 227.32617 C 178.39307 228.5795 179.30044 229.44578 180.28711 229.92578 C 181.30044 230.40579 182.30044 230.65889 183.28711 230.68555 C 184.38044 230.71221 185.48742 230.45912 186.60742 229.92578 C 187.72742 229.41912 188.73982 228.39237 189.64648 226.8457 C 190.57982 225.3257 191.34107 223.19198 191.92773 220.44531 C 192.34727 218.46208 192.60931 216.02981 192.72852 213.1875 C 191.18836 213.17085 189.6615 213.16579 188.09375 213.14453 C 188.0189 215.0079 187.88863 216.64826 187.6875 218.00586 C 187.39417 220.13919 187.00734 221.80586 186.52734 223.00586 C 186.07401 224.20586 185.55347 225.01865 184.9668 225.44531 C 184.4068 225.84531 183.87385 226.04492 183.36719 226.04492 C 182.91385 226.04492 182.46114 225.87206 182.00781 225.52539 C 181.55448 225.17872 181.14091 224.56555 180.76758 223.68555 C 180.39425 222.77888 180.08766 221.52578 179.84766 219.92578 C 179.60766 218.32578 179.48828 216.25794 179.48828 213.72461 C 179.48828 213.48944 179.49473 213.28179 179.49609 213.05273 C 178.25376 213.04655 177.00927 213.04195 175.76367 213.04688 z M 174.45508 213.0625 C 172.90412 213.07466 171.35578 213.10014 169.80859 213.13867 C 169.7828 214.144 169.74485 215.16204 169.68164 216.20508 C 169.57497 217.96508 169.33427 219.56586 168.96094 221.00586 C 168.58761 222.44586 168.02792 223.63112 167.28125 224.56445 C 166.56125 225.49778 165.56125 225.96484 164.28125 225.96484 C 164.06792 225.9115 163.84156 225.87236 163.60156 225.8457 C 163.38824 225.81904 163.17428 225.77795 162.96094 225.72461 L 163.28906 213.40625 C 161.69434 213.499 160.10991 213.61398 158.53906 213.75586 L 157.92188 230.44531 C 158.80186 230.472 159.6538 230.49873 160.48047 230.52539 C 161.1738 230.55205 161.88156 230.56445 162.60156 230.56445 C 163.32156 230.59111 163.88125 230.60547 164.28125 230.60547 C 165.82792 230.60547 167.1469 230.32563 168.24023 229.76562 C 169.33357 229.20564 170.25529 228.44633 171.00195 227.48633 C 171.77529 226.52633 172.38846 225.405 172.8418 224.125 C 173.29513 222.81833 173.64086 221.44586 173.88086 220.00586 C 174.12086 218.56586 174.28133 217.08445 174.36133 215.56445 C 174.40538 214.71282 174.43552 213.88139 174.45508 213.0625 z M 193.24609 213.19336 L 192.60938 230.44531 C 193.48936 230.472 194.3413 230.49873 195.16797 230.52539 C 195.8613 230.55205 196.56906 230.56445 197.28906 230.56445 C 198.00906 230.59111 198.56875 230.60547 198.96875 230.60547 C 200.51542 230.60547 201.8344 230.32563 202.92773 229.76562 C 204.02107 229.20564 204.94278 228.44633 205.68945 227.48633 C 206.46278 226.52633 207.07596 225.405 207.5293 224.125 C 207.98263 222.81833 208.32836 221.44586 208.56836 220.00586 C 208.80836 218.56586 208.96883 217.08445 209.04883 215.56445 C 209.08235 214.91635 209.1057 214.28336 209.125 213.6543 C 207.58765 213.54744 206.04371 213.45809 204.49219 213.38867 C 204.46567 214.31271 204.42706 215.24936 204.36914 216.20508 C 204.26247 217.96508 204.02177 219.56586 203.64844 221.00586 C 203.2751 222.44586 202.71542 223.63112 201.96875 224.56445 C 201.24875 225.49778 200.24875 225.96484 198.96875 225.96484 C 198.75542 225.9115 198.52906 225.87236 198.28906 225.8457 C 198.07574 225.81904 197.86178 225.77795 197.64844 225.72461 L 197.98242 213.23242 C 196.4372 213.23144 194.83051 213.20945 193.24609 213.19336 z M 282.94922 213.5 C 281.29654 213.91276 279.70991 214.30205 278.32812 214.60352 L 278.5332 230.72461 L 290.93164 230.72461 L 290.93164 226.08594 L 283.0918 226.08594 L 282.94922 213.5 z M 209.66992 213.68945 C 209.70702 216.42175 209.87099 218.79623 210.17578 220.76562 C 210.54911 223.00563 211.09445 224.83276 211.81445 226.24609 C 212.53445 227.63276 213.44182 228.63276 214.53516 229.24609 C 215.65516 229.88609 216.96174 230.20508 218.45508 230.20508 C 219.70841 230.20508 220.81539 229.83261 221.77539 229.08594 C 222.76206 228.33927 223.57484 227.36602 224.21484 226.16602 C 224.88151 224.93935 225.38771 223.53818 225.73438 221.96484 C 226.08103 220.39151 226.25586 218.77833 226.25586 217.125 C 226.25586 216.5746 226.20152 215.90506 226.11719 215.16992 C 223.21458 214.90693 220.3163 214.62261 217.41406 214.34961 L 217.375 215.08594 C 217.82833 215.11262 218.29539 215.13936 218.77539 215.16602 C 219.17539 215.1927 219.6157 215.21944 220.0957 215.24609 C 220.60237 215.27278 221.09422 215.29951 221.57422 215.32617 C 221.62754 215.6195 221.64189 215.92609 221.61523 216.24609 L 221.61523 217.125 C 221.61523 218.19167 221.5474 219.23276 221.41406 220.24609 C 221.28073 221.25943 221.08112 222.16484 220.81445 222.96484 C 220.54779 223.73818 220.21445 224.3657 219.81445 224.8457 C 219.41445 225.3257 218.96174 225.56445 218.45508 225.56445 C 217.73508 225.56445 217.10755 225.3381 216.57422 224.88477 C 216.06755 224.40477 215.64159 223.65786 215.29492 222.64453 C 214.97491 221.60453 214.72181 220.2588 214.53516 218.60547 C 214.41171 217.32989 214.35054 215.77277 214.32227 214.06836 C 212.7748 213.93217 211.22688 213.80142 209.66992 213.68945 z M 277.17773 214.8418 C 275.5502 215.16776 274.17792 215.37695 273.21484 215.37695 C 272.98925 215.37695 272.75943 215.38203 272.5332 215.38281 L 272.79492 228.88477 L 277.43555 228.80469 L 277.17773 214.8418 z M 227.08594 215.25195 L 227.2832 230.72461 L 239.68164 230.72461 L 239.68164 226.08594 L 231.8418 226.08594 L 231.72461 215.63086 C 230.17342 215.51845 228.62952 215.38833 227.08594 215.25195 z M 267.08203 215.46484 C 265.55974 215.50217 264.0074 215.5535 262.46094 215.60547 L 262.79492 229.48633 L 267.43555 229.40625 L 267.08203 215.46484 z M 257.80859 215.75781 C 256.27392 215.81231 254.72045 215.86044 253.16602 215.9082 L 253.01758 229.08594 L 257.65625 229.16602 L 257.80859 215.75781 z M 194.07422 263.48047 L 193.12891 285.08203 C 193.52891 285.13537 193.91573 285.17648 194.28906 285.20312 C 194.68906 285.22981 195.09023 285.25459 195.49023 285.28125 L 195.49023 285.2832 C 195.81023 285.33654 196.14357 285.37569 196.49023 285.40234 C 196.78357 285.429 197.10255 285.44141 197.44922 285.44141 C 197.82255 285.46806 198.17023 285.48242 198.49023 285.48242 C 200.01023 285.48242 201.37031 285.25607 202.57031 284.80273 C 203.79698 284.37607 204.83612 283.69505 205.68945 282.76172 C 206.56945 281.85505 207.25047 280.68219 207.73047 279.24219 C 208.23714 277.80219 208.54373 276.06964 208.65039 274.04297 L 208.65039 274.20312 C 208.67705 273.9898 208.68945 273.76148 208.68945 273.52148 L 208.68945 272.72266 C 208.68945 270.88266 208.47549 269.30862 208.04883 268.00195 C 207.75287 267.07709 207.36031 266.26934 206.88477 265.5625 C 202.5851 265.04929 198.33758 264.24628 194.07422 263.48047 z M 198.65039 266.44141 C 200.46372 266.52141 201.80945 267.09544 202.68945 268.16211 C 203.59612 269.22878 204.04883 270.74932 204.04883 272.72266 C 204.04883 275.60266 203.55698 277.68289 202.57031 278.96289 C 201.61031 280.21622 200.25023 280.8418 198.49023 280.8418 C 198.41023 280.8418 198.33 280.85615 198.25 280.88281 L 198.00977 280.88281 C 198.11645 278.05615 198.22342 275.49646 198.33008 273.20312 C 198.46342 270.9098 198.57039 268.65474 198.65039 266.44141 z M 247.69922 267.03711 L 241.75781 284.28125 L 246.79883 284.36133 L 250.47852 273.5625 L 254.31836 284.44141 L 259.07812 284.12305 L 253.48828 267.46094 C 251.63135 267.30676 249.69801 267.16707 247.69922 267.03711 z "
         style="font-style:normal;font-variant:normal;font-weight:normal;font-stretch:normal;font-size:medium;line-height:1.25;font-family:'Saker Sans Bold PERSONAL USE';-inkscape-font-specification:'Saker Sans Bold PERSONAL USE';text-align:center;letter-spacing:0px;word-spacing:0px;text-anchor:middle;fill:#814836;fill-opacity:1;stroke:none;stroke-width:0.99999994" />
    </g>
  </g>
</svg>
